<svg width="256" height="128" viewBox="0 0 256 128" fill="none" xmlns="http://www.w3.org/2000/svg">
<g clip-path="url(#clip0)">
<g filter="url(#filter0_b)">
<path d="M34.5904 108.072C34.7344 106.056 34.8784 104.04 35.1664 102.168C35.4544 100.008 36.4624 98.424 38.6224 97.848C47.6944 95.832 54.6064 89.928 61.6624 84.744C66.7024 81.144 66.8464 75.384 62.5264 70.776C59.2144 67.176 54.7504 66.6 50.2864 65.736C48.7024 65.448 46.9744 65.016 45.3904 64.728C45.2464 64.152 44.9584 63.72 44.6704 63.144C45.9664 62.28 47.2624 61.56 48.4144 60.408C51.4384 57.096 54.7504 53.784 57.3424 50.184C59.3584 47.448 60.9424 43.848 59.2144 40.68C56.6224 36.216 52.3024 32.904 47.1184 33.048C40.0624 33.192 33.1504 34.776 26.0944 35.64C22.9264 36.072 19.9024 36.36 16.7344 36.216C14.2864 36.072 12.5584 36.072 10.9744 38.232C8.81441 41.688 4.92641 42.408 1.18241 42.552C0.174406 42.552 -1.12159 42.696 -2.12959 42.984C-0.833594 47.736 -0.689595 48.168 3.77441 52.632C7.80641 56.52 9.10241 56.52 12.9904 52.488C15.0064 50.184 16.8784 47.592 21.1984 47.016C21.6304 49.896 22.0624 52.2 22.0624 54.648C22.4944 61.992 22.6384 69.048 22.6384 76.104C22.7824 82.44 22.6384 88.92 22.4944 95.112C22.2064 102.312 27.1024 108.216 34.5904 108.072ZM37.1824 59.4C36.7504 58.968 36.4624 58.824 35.8864 58.68C35.7424 55.512 36.3184 52.2 35.1664 49.464C34.1584 46.872 31.7104 44.856 29.6944 42.264C33.8704 38.088 38.4784 37.512 43.5184 38.088C46.9744 38.376 47.9824 39.672 46.8304 42.696C45.3904 46.44 43.5184 50.04 41.6464 53.352C40.2064 55.512 38.4784 57.24 37.1824 59.4ZM36.4624 84.456C33.4384 78.696 34.0144 76.392 39.3424 74.664C42.5104 73.8 45.5344 71.928 48.9904 72.936C47.8384 76.824 44.6704 79.704 36.4624 84.456ZM93.7907 98.856C94.7987 98.712 96.0947 99.144 96.8147 98.568C100.271 96.12 103.727 93.672 106.751 90.792C108.623 89.064 109.775 86.616 111.503 84.6C117.407 78.408 118.703 70.632 119.711 62.568C120.287 58.824 120.575 54.936 121.871 51.48C123.311 47.448 123.455 46.296 119.279 45.576C114.383 44.568 109.343 43.848 104.447 43.56C99.4067 43.416 94.2227 41.112 89.1827 43.704C88.8947 43.848 88.3187 43.848 87.8867 43.704C85.0067 42.264 83.4227 44.136 81.5507 45.864C80.8307 46.728 80.2547 48.024 79.2467 48.6C77.8067 49.176 75.6467 48.744 75.2147 50.76C74.9267 52.344 75.3587 54.072 75.5027 55.656C75.6467 56.52 75.9347 57.528 75.7907 58.392C74.7827 63.432 76.5107 68.184 77.0867 73.224C77.3747 75.24 77.5187 77.544 78.2387 79.416C79.6787 83.448 81.5507 87.336 83.1347 91.224C85.0067 96.264 88.4627 98.568 93.7907 98.856ZM94.0787 86.616C90.1907 87.624 88.8947 86.616 86.7347 83.016C83.7107 77.976 83.1347 72.36 84.2867 66.744C85.0067 63.72 87.0227 60.84 88.8947 58.104C90.0467 56.088 91.7747 54.216 93.5027 52.632C94.3667 51.912 95.9507 51.768 97.1027 51.48C100.991 52.488 104.879 52.92 108.191 54.36C111.503 55.8 113.663 61.848 112.943 65.736C111.647 74.232 105.887 79.272 99.8387 84.168C98.3987 85.464 96.0947 86.184 94.0787 86.616ZM139.288 118.296C140.584 115.848 141.448 112.968 142.168 110.232C143.032 107.208 143.752 104.184 144.184 101.016C144.904 95.256 145.768 89.64 146.056 83.88C146.344 77.688 145.768 71.496 146.056 65.304C146.344 57.96 147.496 50.76 147.64 43.416C147.64 36.216 148.792 28.872 146.056 21.816C145.624 20.52 145.624 19.08 145.48 17.928C149.224 16.056 151.384 15.624 151.816 16.92L149.944 19.224C152.824 23.976 153.688 24.12 158.44 23.4C162.328 22.824 166.36 21.384 170.536 22.824C172.984 23.688 175 22.536 175.864 19.8C173.56 15.912 170.248 12.744 166.216 10.584C164.2 9.57599 161.752 8.568 159.736 10.008C157.576 11.736 155.272 11.448 152.824 11.448C149.08 11.304 145.192 11.448 141.448 11.592C138.28 11.736 135.112 12.024 131.944 10.584C130.216 9.72 128.056 9.864 127.192 11.736C125.896 14.04 123.736 14.472 121.576 14.904C117.544 15.768 113.512 16.344 109.48 17.064C108.472 17.208 107.464 17.928 106.6 18.216C106.168 24.408 110.2 27.144 114.088 30.024C116.104 31.464 117.4 31.032 118.984 28.872C121.72 24.984 125.896 23.976 130.504 22.536C130.936 24.264 131.224 25.56 131.368 26.856C131.8 31.752 132.088 36.648 132.376 41.544C132.664 44.28 132.952 47.016 133.096 49.752L134.392 73.368C134.536 75.96 134.968 78.552 134.968 81.144C135.112 90.216 134.968 99.432 134.968 108.504C134.968 112.536 135.4 115.128 136.552 117.432C138.424 118.872 139.288 118.296 139.288 118.296ZM171.28 118.296C172.576 115.848 173.44 112.968 174.16 110.232C175.024 107.208 175.744 104.184 176.176 101.016C176.896 95.256 177.76 89.64 178.048 83.88C178.336 77.688 177.76 71.496 178.048 65.304C178.336 57.96 179.488 50.76 179.632 43.416C179.632 36.216 180.784 28.872 178.048 21.816C177.616 20.52 177.616 19.08 177.472 17.928C181.216 16.056 183.376 15.624 183.808 16.92L181.936 19.224C184.816 23.976 185.68 24.12 190.432 23.4C194.32 22.824 198.352 21.384 202.528 22.824C204.976 23.688 206.992 22.536 207.856 19.8C205.552 15.912 202.24 12.744 198.208 10.584C196.192 9.57599 193.744 8.568 191.728 10.008C189.568 11.736 187.264 11.448 184.816 11.448C181.072 11.304 177.184 11.448 173.44 11.592C170.272 11.736 167.104 12.024 163.936 10.584C162.208 9.72 160.048 9.864 159.184 11.736C157.888 14.04 155.728 14.472 153.568 14.904C149.536 15.768 145.504 16.344 141.472 17.064C140.464 17.208 139.456 17.928 138.592 18.216C138.16 24.408 142.192 27.144 146.08 30.024C148.096 31.464 149.392 31.032 150.976 28.872C153.712 24.984 157.888 23.976 162.496 22.536C162.928 24.264 163.216 25.56 163.36 26.856C163.792 31.752 164.08 36.648 164.368 41.544C164.656 44.28 164.944 47.016 165.088 49.752L166.384 73.368C166.528 75.96 166.96 78.552 166.96 81.144C167.104 90.216 166.96 99.432 166.96 108.504C166.96 112.536 167.392 115.128 168.544 117.432C170.416 118.872 171.28 118.296 171.28 118.296ZM212.056 98.856C213.064 98.712 214.36 99.144 215.08 98.568C218.536 96.12 221.992 93.672 225.016 90.792C226.888 89.064 228.04 86.616 229.768 84.6C235.672 78.408 236.968 70.632 237.976 62.568C238.552 58.824 238.84 54.936 240.136 51.48C241.576 47.448 241.72 46.296 237.544 45.576C232.648 44.568 227.608 43.848 222.712 43.56C217.672 43.416 212.488 41.112 207.448 43.704C207.16 43.848 206.584 43.848 206.152 43.704C203.272 42.264 201.688 44.136 199.816 45.864C199.096 46.728 198.52 48.024 197.512 48.6C196.072 49.176 193.912 48.744 193.48 50.76C193.192 52.344 193.624 54.072 193.768 55.656C193.912 56.52 194.2 57.528 194.056 58.392C193.048 63.432 194.776 68.184 195.352 73.224C195.64 75.24 195.784 77.544 196.504 79.416C197.944 83.448 199.816 87.336 201.4 91.224C203.272 96.264 206.728 98.568 212.056 98.856ZM212.344 86.616C208.456 87.624 207.16 86.616 205 83.016C201.976 77.976 201.4 72.36 202.552 66.744C203.272 63.72 205.288 60.84 207.16 58.104C208.312 56.088 210.04 54.216 211.768 52.632C212.632 51.912 214.216 51.768 215.368 51.48C219.256 52.488 223.144 52.92 226.456 54.36C229.768 55.8 231.928 61.848 231.208 65.736C229.912 74.232 224.152 79.272 218.104 84.168C216.664 85.464 214.36 86.184 212.344 86.616Z" fill="#454545"/>
</g>
</g>
<defs>
<filter id="filter0_b" x="-6.12961" y="5.29035" width="251.18" height="117.119" filterUnits="userSpaceOnUse" color-interpolation-filters="sRGB">
<feFlood flood-opacity="0" result="BackgroundImageFix"/>
<feGaussianBlur in="BackgroundImage" stdDeviation="2"/>
<feComposite in2="SourceAlpha" operator="in" result="effect1_backgroundBlur"/>
<feBlend mode="normal" in="SourceGraphic" in2="effect1_backgroundBlur" result="shape"/>
</filter>
<clipPath id="clip0">
<rect width="256" height="128" fill="white"/>
</clipPath>
</defs>
</svg>
